<?xml version="1.0" encoding="UTF-8"?>
<svg id="Layer_1" data-name="Layer 1" xmlns="http://www.w3.org/2000/svg" version="1.1" viewBox="0 0 512 408">
  <defs>
    <style>
      .cls-1 {
        fill: #fefae0;
        stroke-width: 0px;
      }
    </style>
  </defs>
  <path class="cls-1" d="M106.3,0c-29.2,0-50.8,25.6-49.9,53.3.9,26.6-.3,61.2-9,89.3-8.7,28.2-23.4,46.1-47.5,48.4v26c24.1,2.3,38.8,20.1,47.5,48.4,8.7,28.1,9.9,62.7,9,89.3-1,27.7,20.6,53.3,49.9,53.3h299.4c29.2,0,50.8-25.6,49.9-53.3-.9-26.6.3-61.2,9-89.3,8.7-28.2,23.4-46.1,47.5-48.4v-26c-24.1-2.3-38.8-20.1-47.5-48.4-8.7-28.1-9.9-62.7-9-89.3,1-27.7-20.6-53.3-49.9-53.3H106.3ZM342.9,251.1c0,38.2-28.5,61.4-75.8,61.4h-87.2c-1.1,0-2-.9-2-2V97.5c0-1.1.9-2,2-2h86.7c39.4,0,65.3,21.4,65.3,54.1s-17.4,43.6-39.6,47.2v1.2c30.2,3.3,50.5,24.2,50.5,53.1h0ZM258.3,123h-45.9v64.8h38.7c29.9,0,46.4-12,46.4-33.5s-14.2-31.3-39.1-31.3h0ZM212.4,213.5v71.4h47.6c31.1,0,47.6-12.5,47.6-35.9s-16.9-35.5-49.6-35.5h-45.6Z"/>
</svg>