<?xml version="1.0" encoding="UTF-8"?>
<svg xmlns="http://www.w3.org/2000/svg" version="1.1" viewBox="0 0 1011.5 1333.3">
  <defs>
    <style>
      .cls-1 {
        fill: #fefae0;
        stroke-width: 0px;
      }
    </style>
  </defs>
  <g id="Layer_1" data-name="Layer 1" image-rendering="optimizeQuality" shape-rendering="geometricPrecision" text-rendering="geometricPrecision">
    <path class="cls-1" d="M716,281C622.3,189.8,533.5,100.9,507,0c-26.4,100.9-115.3,189.8-209,281.1C158.7,420.4.2,578.9.2,816.8c-7.2,278.7,216.2,511.7,494.9,516.5s511.7-216.2,516.5-494.9v-21.6c2.4-237.8-156.2-396.4-295.5-535.7h0ZM259.6,862.4c-14.4,19.2-28.8,40.8-38.4,62.5-2.4,2.4-4.8,7.2-9.6,7.2h-2.4c-12,0-24-21.6-24-21.6-2.4-4.8-7.2-12-9.6-16.8l-2.4-4.8c-31.2-67.3-4.8-161-4.8-161,12-45.6,33.6-91.3,60.1-129.7,16.8-24,36-48,55.2-72.1l24,24,112.9,115.3c4.8,4.8,4.8,12,0,16.8l-117.7,132.1-43.2,48h0ZM511.8,1193.9c-96.1,0-175.4-79.3-173-175.4,0-43.2,16.8-84.1,43.2-115.3,36-43.2,81.7-86.5,132.1-144.1,57.7,62.5,96.1,103.3,132.1,151.4,2.4,2.4,4.8,7.2,7.2,12,19.2,28.8,31.2,62.5,31.2,98.5,2.4,96.1-76.9,173-173,173h0ZM841,915.2c-2.4,7.2-9.6,12-16.8,14.4h-2.4c-7.2-2.4-12-7.2-16.8-12-31.2-45.6-64.8-88.9-103.3-127.3l-45.6-48-153.8-158.5c-31.2-28.8-62.5-62.5-91.3-93.7,0-2.4-2.4-2.4-2.4-2.4-4.8-7.2-9.6-14.4-12-24v-4.8c-4.8-26.4,4.8-52.9,24-72.1,28.8-28.8,60.1-60.1,88.9-91.3,31.2,33.6,64.9,67.3,98.5,100.9,67.3,62.5,127.3,132.1,182.6,206.6,45.6,64.8,69.7,139.3,69.7,218.6-4.8,28.8-9.6,62.5-19.2,93.7h0Z"/>
  </g>
</svg>